<svg xmlns="http://www.w3.org/2000/svg" xmlns:xlink="http://www.w3.org/1999/xlink" version="1.1" style="" xml:space="preserve" width="210.68" height="210.68"><rect id="backgroundrect" width="100%" height="100%" x="0" y="0" fill="none" stroke="none"/>

<g class="currentLayer" style=""><title>Layer 1</title><path d="M205.613,31.86259059238434 c0,-10.405 -10.746,-18.149 -32.854,-23.676000000000002 C154.659,3.6615905923843384 130.716,1.1695905923843384 105.34,1.1695905923843384 C79.965,1.1695905923843384 56.021,3.6615905923843384 37.921,8.186590592384338 C15.813,13.713590592384339 5.066,21.45759059238434 5.066,31.86259059238434 c0,3.85 1.476,7.335 4.45,10.479 l68.245,82.777 v79.23 c0,2.595 1.3410000000000002,5.005 3.5460000000000003,6.373 c1.207,0.7490000000000001 2.5780000000000003,1.127 3.954,1.127 c1.138,0 2.278,-0.259 3.331,-0.78 l40.075,-19.863 c2.55,-1.264 4.165,-3.863 4.1690000000000005,-6.71 l0.07700000000000001,-59.372 l68.254,-82.787 C204.139,39.19359059238434 205.613,35.71159059238434 205.613,31.86259059238434 zM44.94,21.936590592384338 C61.467,18.217590592384337 82.917,16.16959059238434 105.34,16.16959059238434 s43.874,2.048 60.399,5.767 c18.25,4.107 23.38,8.521 24.607,9.926 c-1.228,1.405 -6.357,5.819 -24.607,9.926 c-16.525,3.7190000000000003 -37.977,5.767 -60.399,5.767 S61.467,45.50759059238434 44.94,41.789590592384336 c-18.249,-4.107 -23.38,-8.521 -24.607,-9.926 C21.56,30.45759059238434 26.691,26.043590592384337 44.94,21.936590592384338 zM119.631,117.65559059238434 c-1.105,1.3410000000000002 -1.711,3.023 -1.713,4.761 l-0.07500000000000001,57.413 l-25.081,12.432 v-69.835 c0,-1.741 -0.6050000000000001,-3.428 -1.713,-4.771 L40.306,56.10759059238434 C58.1,60.26959059238434 81.058,62.55659059238434 105.34,62.55659059238434 c24.283,0 47.24,-2.287 65.034,-6.449 L119.631,117.65559059238434 z" id="svg_1" class="selected" fill="#ffffff" fill-opacity="1"/></g></svg>